<svg width="26" height="25" viewBox="0 0 26 25" fill="none" xmlns="http://www.w3.org/2000/svg">
<path d="M18.0625 0H8.6875C4.37344 0 0.875 3.49844 0.875 7.8125V17.1875C0.875 21.5016 4.37344 25 8.6875 25H18.0625C22.3766 25 25.875 21.5016 25.875 17.1875V7.8125C25.875 3.49844 22.3766 0 18.0625 0ZM23.5312 17.1875C23.5312 20.2031 21.0781 22.6562 18.0625 22.6562H8.6875C5.67188 22.6562 3.21875 20.2031 3.21875 17.1875V7.8125C3.21875 4.79688 5.67188 2.34375 8.6875 2.34375H18.0625C21.0781 2.34375 23.5312 4.79688 23.5312 7.8125V17.1875Z" fill="#04D3FD"/>
<path d="M13.3746 6.25024C9.92307 6.25024 7.12463 9.04868 7.12463 12.5002C7.12463 15.9518 9.92307 18.7502 13.3746 18.7502C16.8262 18.7502 19.6246 15.9518 19.6246 12.5002C19.6246 9.04868 16.8262 6.25024 13.3746 6.25024ZM13.3746 16.4065C11.2215 16.4065 9.46838 14.6534 9.46838 12.5002C9.46838 10.3456 11.2215 8.59399 13.3746 8.59399C15.5278 8.59399 17.2809 10.3456 17.2809 12.5002C17.2809 14.6534 15.5278 16.4065 13.3746 16.4065Z" fill="#04D3FD"/>
<path d="M20.2986 6.58882C20.7444 6.47561 21.014 6.02245 20.9008 5.57665C20.7876 5.13085 20.3344 4.86124 19.8886 4.97445C19.4428 5.08767 19.1732 5.54083 19.2864 5.98663C19.3996 6.43242 19.8528 6.70204 20.2986 6.58882Z" fill="#04D3FD"/>
</svg>
