<svg width="92" height="92" viewBox="0 0 92 92" fill="none" xmlns="http://www.w3.org/2000/svg">
<path d="M35.8901 35.7637V56.2363C35.8901 58.0897 36.6062 59.3745 38.0385 60.0907C39.4707 60.8068 40.8608 60.7015 42.2088 59.7747L58.511 49.4121C59.6905 48.5696 60.2802 47.4322 60.2802 46C60.2802 44.5678 59.6905 43.4304 58.511 42.5879L42.2088 32.2253C40.8608 31.2985 39.4707 31.1932 38.0385 31.9093C36.6062 32.6255 35.8901 33.9103 35.8901 35.7637ZM46 92C39.6813 92 33.7418 90.7784 28.1813 88.3352C22.6209 85.8919 17.7555 82.6062 13.5852 78.478C9.41483 74.3498 6.10806 69.4844 3.66483 63.8819C1.22161 58.2793 0 52.3187 0 46C0 39.5971 1.22161 33.6364 3.66483 28.1181C6.10806 22.5998 9.41483 17.7555 13.5852 13.5852C17.7555 9.41483 22.6209 6.10806 28.1813 3.66483C33.7418 1.22161 39.6813 0 46 0C52.4029 0 58.3636 1.22161 63.8819 3.66483C69.4002 6.10806 74.2445 9.41483 78.4148 13.5852C82.5852 17.7555 85.8919 22.5998 88.3352 28.1181C90.7784 33.6364 92 39.5971 92 46C92 52.3187 90.7784 58.2582 88.3352 63.8187C85.8919 69.3791 82.5852 74.2445 78.4148 78.4148C74.2445 82.5852 69.4002 85.8919 63.8819 88.3352C58.3636 90.7784 52.4029 92 46 92ZM46 87.5769C57.4579 87.5769 67.2518 83.533 75.3819 75.4451C83.5119 67.3571 87.5769 57.5421 87.5769 46C87.5769 34.5421 83.5119 24.7482 75.3819 16.6181C67.2518 8.48809 57.4579 4.42308 46 4.42308C34.4579 4.42308 24.6429 8.48809 16.5549 16.6181C8.46703 24.7482 4.42308 34.5421 4.42308 46C4.42308 57.5421 8.46703 67.3571 16.5549 75.4451C24.6429 83.533 34.4579 87.5769 46 87.5769Z" fill="white"/>
</svg>
