<svg width="24" height="20" viewBox="0 0 24 20" fill="none" xmlns="http://www.w3.org/2000/svg">
<path d="M7.58242 19.8862C16.4272 19.8862 21.2641 12.5585 21.2641 6.20454C21.2641 5.99643 21.2598 5.78917 21.2504 5.58306C22.1893 4.90424 23.0052 4.05716 23.6491 3.09297C22.7875 3.4761 21.8602 3.73366 20.8877 3.85019C21.8804 3.25465 22.6426 2.31297 23.0021 1.1904C22.073 1.74122 21.044 2.1414 19.9487 2.35754C19.0712 1.42288 17.8218 0.838379 16.4385 0.838379C13.7832 0.838379 11.6297 2.99178 11.6297 5.64627C11.6297 6.0238 11.6719 6.39073 11.7543 6.74275C7.75786 6.54166 4.21386 4.62833 1.84245 1.71872C1.42966 2.42921 1.19144 3.25479 1.19144 4.1357C1.19144 5.80379 2.04039 7.2768 3.33123 8.13822C2.54233 8.11399 1.80131 7.89742 1.15346 7.53695C1.15274 7.55715 1.15274 7.57679 1.15274 7.59829C1.15274 9.92713 2.81022 11.8716 5.01078 12.3122C4.60658 12.4221 4.18132 12.4813 3.74273 12.4813C3.43342 12.4813 3.13185 12.4509 2.83888 12.3946C3.45105 14.3052 5.22635 15.6955 7.33102 15.7345C5.68515 17.0244 3.61187 17.7928 1.35856 17.7928C0.970997 17.7928 0.587874 17.7706 0.211487 17.7262C2.33966 19.0903 4.86659 19.8862 7.58242 19.8862Z" fill="#04D3FD"/>
</svg>
